<svg version="1.1" id="Layer_1" xmlns="http://www.w3.org/2000/svg" xmlns:xlink="http://www.w3.org/1999/xlink" x="0px" y="0px"
	 width="100%" viewBox="0 0 576 400" enable-background="new 0 0 576 400" xml:space="preserve">
<path fill="#00000" opacity="1.000000" stroke="none" 
	d="
M276.509399,172.560944 
	C249.848450,190.070175 222.596146,205.747009 193.414734,217.876633 
	C187.158875,220.476974 186.666504,220.250580 183.534302,214.096619 
	C183.909149,212.574112 185.346558,212.264816 186.483597,211.684021 
	C224.185577,192.425964 257.364746,166.915833 288.250458,138.211807 
	C301.929535,125.498940 315.029633,112.226112 327.275177,98.129715 
	C329.461914,95.612473 331.092621,95.322884 333.929474,97.263824 
	C340.715637,101.906830 347.985413,105.560204 356.510406,105.742157 
	C359.198334,105.799522 360.444977,108.042267 362.010132,109.694702 
	C396.722839,146.343719 436.338226,176.361496 481.972473,198.176712 
	C495.958252,204.862534 510.402679,210.440857 525.344604,214.658127 
	C526.289246,214.924759 527.355835,214.933517 528.192017,217.244720 
	C470.653992,206.101624 418.165863,184.709839 369.244568,151.158524 
	C371.364258,157.414856 374.883179,161.344467 377.711304,165.624557 
	C380.618744,170.024826 383.843323,174.215515 386.478058,179.069122 
	C368.719910,170.421951 352.425720,159.401764 335.202148,149.319107 
	C333.423065,153.528854 337.103271,157.045166 335.447876,161.304626 
	C328.639465,159.104202 322.615936,155.545227 316.882874,151.776917 
	C312.701447,149.028473 309.890900,149.176880 305.924988,152.115372 
	C296.431763,159.149277 286.535736,165.639526 276.509399,172.560944 
z"/>
<path fill="#00000" opacity="1.000000" stroke="none" 
	d="
M75.562592,264.604401 
	C65.203949,271.983765 54.974113,278.884888 43.551079,285.011475 
	C43.718971,281.823730 45.693691,281.191376 47.012684,280.097626 
	C74.133209,257.607819 99.718834,233.599228 121.013527,205.348892 
	C126.731682,197.762985 132.236221,189.997818 136.463745,181.472717 
	C138.259598,177.851242 140.134033,177.156509 143.290161,179.552460 
	C143.809494,179.946732 144.468964,180.350784 145.087128,180.391174 
	C153.607956,180.948257 156.919724,187.472656 161.099442,193.545486 
	C183.450150,226.019562 211.043457,253.690674 240.681519,279.448334 
	C241.940140,280.542175 244.059036,281.079498 243.940475,283.902100 
	C237.681396,281.430420 232.549850,277.514679 227.180313,274.110870 
	C207.163239,261.421814 188.313187,247.157089 170.800217,231.181351 
	C167.918900,228.552917 165.458893,227.697525 161.533646,228.906189 
	C150.859344,232.193100 139.858383,234.096268 128.715836,235.034088 
	C126.857124,235.190521 124.833069,235.788742 122.211082,233.628159 
	C135.696701,230.782669 148.419327,228.219879 161.086807,222.516998 
	C155.765137,216.743591 150.981567,211.312943 145.910339,206.165695 
	C143.748734,203.971664 142.311386,206.551376 141.045532,207.843613 
	C131.836487,217.244476 122.653244,226.660370 112.621811,235.214188 
	C100.706505,245.374390 88.640335,255.335663 75.562592,264.604401 
z"/>
<path fill="#00000" opacity="1.000000" stroke="none" 
	d="
M368.434174,223.619904 
	C366.013580,221.005005 368.427643,220.951691 369.669556,220.945236 
	C379.646301,220.893311 389.685333,219.864624 399.558929,222.004868 
	C406.192596,223.442825 410.823578,228.682281 411.630432,235.694550 
	C412.419861,242.555313 410.173828,248.570938 403.845093,251.662476 
	C398.701813,254.174911 399.369293,256.495117 402.146606,260.209412 
	C404.933655,263.936829 407.268677,268.001984 409.807037,271.915710 
	C412.658295,276.311859 415.793091,280.374176 421.227875,281.803223 
	C421.666321,281.918518 422.071289,282.307770 422.394867,282.659058 
	C422.593323,282.874542 422.607025,283.260162 422.697968,283.571167 
	C417.715454,287.126923 408.551117,285.788849 405.410004,280.985565 
	C400.577332,273.595734 395.793243,266.174072 391.009338,258.752502 
	C389.815002,256.899689 388.706268,254.847244 386.000549,255.556671 
	C383.234131,256.282013 384.046051,258.702850 384.008362,260.558655 
	C383.913574,265.222382 384.019775,269.889862 383.974243,274.555115 
	C383.934235,278.651855 384.860382,281.887726 389.845642,282.047852 
	C390.700958,282.075287 391.396179,282.603149 391.570801,283.564148 
	C388.254913,285.984253 370.730042,286.006592 366.441711,283.037598 
	C377.366974,281.682526 374.567719,273.754242 374.652100,267.351288 
	C374.810211,255.355286 374.620331,243.354889 374.752441,231.358261 
	C374.800079,227.034149 373.388916,224.251923 368.434174,223.619904 
M397.191071,228.267776 
	C395.541656,226.702682 393.434113,226.172836 391.306854,225.784180 
	C385.898010,224.795914 383.954681,226.412231 383.925964,231.921814 
	C383.898224,237.235916 383.978851,242.550613 383.945251,247.864639 
	C383.925476,250.988251 385.538361,252.031723 388.391357,251.507507 
	C393.262177,250.612549 397.743927,249.110443 400.001770,244.064911 
	C402.511169,238.457169 401.529907,233.416397 397.191071,228.267776 
z"/>
<path fill="#00000" opacity="1.000000" stroke="none" 
	d="
M270.138794,281.847839 
	C271.618134,282.258453 272.887939,282.427948 272.526825,284.954773 
	C264.490173,285.358276 256.372925,285.485657 247.769501,284.895844 
	C248.403183,283.345154 248.493118,282.805908 248.650665,282.785370 
	C255.941025,281.834808 255.995605,276.705444 255.878647,271.022522 
	C255.649033,259.863647 255.812225,248.696747 255.809647,237.533173 
	C255.807281,227.341766 255.805420,227.341766 248.496170,222.247650 
	C249.034744,220.874817 250.268326,220.831757 251.419601,220.849167 
	C260.399567,220.985031 269.401917,220.107559 278.352936,221.593811 
	C286.458099,222.939621 291.505219,227.572037 292.931976,235.193222 
	C294.223450,242.091522 290.760223,248.609589 283.789703,252.418869 
	C282.783325,252.968811 281.797424,253.556213 279.997223,254.587250 
	C287.509735,264.828949 291.086914,277.739746 304.361145,283.109283 
	C298.743652,287.170013 289.808960,285.748932 286.608643,280.812927 
	C281.806580,273.406433 277.012238,265.994873 272.210724,258.587952 
	C270.998322,256.717651 269.672424,254.816498 267.058716,255.575653 
	C264.328796,256.368561 265.272552,258.849640 265.235107,260.671112 
	C265.128937,265.833160 265.247711,270.999756 265.270630,276.164612 
	C265.284180,279.221466 266.527924,281.286987 270.138794,281.847839 
M281.112518,231.638092 
	C278.843384,227.402496 275.122345,225.553833 270.504211,225.540848 
	C267.137695,225.531387 264.913055,226.732513 265.128204,230.856766 
	C265.421021,236.471176 265.307709,242.112961 265.200134,247.739792 
	C265.133240,251.237320 266.820770,251.944199 269.897888,251.457840 
	C280.271088,249.818268 284.286194,243.232224 281.112518,231.638092 
z"/>
<path fill="#00000" opacity="1.000000" stroke="none" 
	d="
M461.571716,282.764343 
	C465.910889,281.095764 466.375488,278.371155 465.214752,274.572266 
	C462.053986,264.228119 462.143463,264.200745 451.300812,264.199860 
	C450.968048,264.199829 450.635284,264.200226 450.302521,264.200104 
	C439.457245,264.196045 439.545715,264.225952 436.136475,274.316589 
	C434.790619,278.299866 435.002228,281.183929 439.733582,282.240814 
	C440.387909,282.386963 441.003387,282.706940 441.312195,283.742401 
	C435.899170,285.682373 430.754059,285.469757 425.651001,284.803680 
	C424.409363,284.641602 424.033722,282.894470 425.244354,282.037445 
	C431.200287,277.821198 432.208008,270.900757 434.633087,264.842407 
	C439.946442,251.568420 444.882660,238.143768 450.037964,224.805801 
	C450.723877,223.031189 451.219055,221.013931 452.941223,219.963226 
	C455.507538,220.616257 455.472717,222.784119 456.070526,224.365356 
	C461.597076,238.983017 466.944244,253.668930 472.533295,268.262299 
	C474.838623,274.281677 476.124969,281.137024 484.951813,283.410065 
	C479.780182,286.144897 475.940094,284.967041 472.281525,285.214203 
	C469.632294,285.393219 466.953888,285.334137 464.300598,285.177002 
	C463.004486,285.100220 460.988800,285.589050 461.571716,282.764343 
M444.481232,259.547821 
	C448.129608,259.565918 451.778076,259.604736 455.426361,259.593170 
	C457.220215,259.587463 459.253601,259.146240 458.504089,256.891785 
	C456.368073,250.467102 453.860870,244.165833 451.499725,237.815979 
	C447.752625,244.314285 445.298462,250.622116 442.853607,256.933563 
	C442.442657,257.994446 442.603302,258.880341 444.481232,259.547821 
z"/>
<path fill="#00000" opacity="1.000000" stroke="none" 
	d="
M317.051331,280.041382 
	C318.564056,282.141174 321.546539,281.318298 323.087708,284.693237 
	C316.943085,285.537415 311.366272,285.628296 304.444611,284.428192 
	C314.049652,276.051849 315.686646,264.882843 319.814026,254.961655 
	C323.970551,244.970352 327.632935,234.773666 331.529785,224.673920 
	C332.173767,223.004837 332.441223,221.079239 334.356720,220.107910 
	C336.656708,220.522324 336.755737,222.603241 337.362579,224.210983 
	C342.713287,238.387146 347.918671,252.619186 353.390930,266.747955 
	C355.853455,273.105865 356.950012,280.525482 365.080872,283.102966 
	C361.386292,285.971283 345.902191,286.051666 342.233704,283.534271 
	C343.399628,281.184509 347.904175,281.807251 347.455292,278.315308 
	C346.879700,273.837616 345.011292,269.683624 343.121735,265.603729 
	C342.467987,264.192169 340.933197,264.246765 339.597931,264.230865 
	C336.765198,264.197144 333.919495,264.043579 331.102051,264.250732 
	C327.869019,264.488495 323.597137,262.574554 321.621521,265.421478 
	C318.774353,269.524261 316.469971,274.322540 317.051331,280.041382 
M330.343262,241.063721 
	C328.088623,247.005768 325.834015,252.947815 323.457184,259.211914 
	C329.572510,259.211914 334.764954,259.211914 340.864685,259.211914 
	C338.041809,251.483810 335.469452,244.441559 332.881683,237.357056 
	C331.041656,238.087204 331.273438,239.546524 330.343262,241.063721 
z"/>
<path fill="#00000" opacity="1.000000" stroke="none" 
	d="
M528.159180,234.519257 
	C526.372437,227.432266 518.932373,223.665604 512.945679,226.467026 
	C511.406372,227.187332 511.349518,228.464813 511.348877,229.801468 
	C511.341705,245.291595 511.331238,260.781799 511.375214,276.271790 
	C511.383789,279.289246 512.731079,281.350891 515.974670,281.800720 
	C517.091797,281.955627 518.354675,282.009766 518.769226,283.429993 
	C515.916016,285.842072 499.082367,286.109619 494.817169,283.776703 
	C495.031494,283.358734 495.214966,282.592072 495.467194,282.568726 
	C502.396759,281.927551 502.086884,276.829529 502.083771,271.920532 
	C502.075623,259.095306 502.170898,246.268219 501.955963,233.446381 
	C501.913177,230.893646 503.709412,227.068359 498.891083,226.291199 
	C492.299652,225.228088 488.146912,227.008759 486.380066,231.735352 
	C485.789337,233.315598 486.226013,235.490036 483.285706,236.424255 
	C482.359680,231.706329 482.585114,227.203583 483.632294,222.761398 
	C484.111176,220.729996 486.166260,220.853073 487.808838,220.849442 
	C500.633911,220.820984 513.459229,220.876465 526.284058,220.810684 
	C529.362305,220.794876 530.994629,221.986481 531.030334,225.150925 
	C531.064209,228.147446 531.330933,231.154282 531.153687,234.136276 
	C531.006714,236.609436 529.903564,237.213623 528.159180,234.519257 
z"/>
</svg>